<svg width="20" height="14" viewBox="0 0 20 14" fill="none" xmlns="http://www.w3.org/2000/svg">
<path d="M16.8 0.6C16.8 0.268632 16.5313 1.13433e-07 16.2 1.13433e-07C15.8687 1.13433e-07 15.6 0.268632 15.6 0.6V11.1515L14.2243 9.77568C13.99 9.54144 13.61 9.54144 13.3757 9.77568C13.1414 10.01 13.1414 10.39 13.3757 10.6243L15.7757 13.0243C16.01 13.2586 16.39 13.2586 16.6243 13.0243L19.0243 10.6243C19.2586 10.39 19.2586 10.01 19.0243 9.77568C18.79 9.54144 18.41 9.54144 18.1757 9.77568L16.8 11.1515V0.6ZM0.385044 0.0398519C0.61698 -0.0491521 0.87978 0.0139924 1.04598 0.198648L6 5.70312L10.9541 0.198648C11.1202 0.0139924 11.383 -0.0491521 11.6149 0.0398519C11.8469 0.128856 12 0.351588 12 0.600024V12.6C12 12.9314 11.7313 13.2 11.4 13.2C11.0687 13.2 10.8 12.9314 10.8 12.6V2.1636L6.44598 7.0014C6.3322 7.12783 6.17009 7.2 6 7.2C5.82991 7.2 5.6678 7.12783 5.55402 7.0014L1.2 2.1636V12.6C1.2 12.9314 0.931368 13.2 0.6 13.2C0.268632 13.2 0 12.9314 0 12.6V0.600024C0 0.351588 0.153096 0.128856 0.385044 0.0398519Z" fill="#979797"/>
</svg>
